<svg xmlns="http://www.w3.org/2000/svg" width="1204" height="1204" viewBox="0 0 1204 1204" version="1.1"><path d="M 287 28.117 C 302.675 43.536, 316.625 56.612, 318 57.176 C 322.480 59.011, 334.602 60.734, 340.618 60.389 C 343.853 60.204, 349.783 59.330, 353.795 58.448 L 361.091 56.843 388.458 29.172 C 403.510 13.952, 416.165 1.163, 416.580 0.750 C 416.994 0.338, 381.596 0.019, 337.917 0.041 L 258.500 0.083 287 28.117 M 438.433 100.434 L 439.165 200.868 434.832 204.033 C 429.209 208.143, 426.500 209.159, 420.935 209.250 C 411.567 209.404, 406.552 205.245, 358.038 157.100 C 349.493 148.620, 337.947 139.513, 331.773 136.385 C 322.369 131.619, 306.018 130.184, 293.644 133.038 C 274.943 137.351, 266.469 153.625, 269.994 178.458 C 271.713 190.570, 275.840 198.421, 286.946 210.710 C 291.813 216.094, 298.428 222.942, 301.647 225.926 C 304.866 228.910, 342.229 265.479, 384.676 307.189 L 461.851 383.026 469.676 384.986 C 479.203 387.373, 492.466 387.159, 501.778 384.470 C 508.012 382.669, 508.221 382.487, 531.278 358.712 L 554.500 334.768 555.056 426.134 L 555.613 517.500 552.229 520.673 C 544.095 528.300, 534.423 529.118, 525.302 522.951 C 522.495 521.053, 507.776 507.399, 492.592 492.609 C 462.435 463.233, 456.507 458.142, 447.500 453.884 C 440.342 450.500, 428.148 448.571, 419 449.375 C 394.520 451.527, 384.798 464.066, 386.236 491.633 C 387.207 510.252, 391.969 517.708, 421.241 546.440 C 431.833 556.838, 463.900 588.314, 492.500 616.387 C 521.100 644.460, 552.150 674.964, 561.500 684.174 C 578.220 700.643, 578.607 700.946, 585 702.618 C 593.440 704.826, 606.541 704.845, 616.104 702.663 L 623.708 700.929 643.106 681.214 C 738.670 584.094, 793.637 527.886, 798.335 522.481 C 803.287 516.784, 808.927 507.027, 810.752 501 C 813.039 493.450, 812.990 475.469, 810.663 468 C 806.894 455.900, 798.518 449.036, 784.934 446.914 C 769.405 444.489, 753.788 447.680, 742.855 455.512 C 739.910 457.621, 723.325 473.393, 706 490.559 C 688.675 507.726, 673.085 522.485, 671.355 523.357 C 663.393 527.372, 653.707 525.947, 646.564 519.709 L 642.889 516.500 642.282 381.267 L 641.675 246.033 662.105 225.267 C 692.137 194.740, 695.500 188.923, 695.500 167.500 C 695.500 152.292, 694.323 147.285, 689.134 140.419 C 682.049 131.045, 667.187 126.581, 650.490 128.812 C 646.118 129.397, 642.413 129.747, 642.257 129.590 C 642.101 129.434, 642.091 114.441, 642.236 96.272 L 642.500 63.237 661.500 81.754 C 671.950 91.938, 688.391 108.075, 698.036 117.613 L 715.572 134.956 723.536 136.957 C 733.425 139.441, 747.617 139.209, 756.383 136.422 C 762.068 134.614, 763.265 133.528, 791.983 104.135 L 821.701 73.720 822.250 186.610 L 822.798 299.500 820.704 301.772 C 819.553 303.021, 816.207 305.219, 813.269 306.657 C 806.678 309.881, 800.188 309.464, 793.148 305.363 C 790.591 303.874, 776.125 290.465, 761 275.566 C 724.888 239.992, 717.016 234.150, 702.326 232.027 C 682.232 229.121, 667.594 233.104, 659.524 243.672 C 654.567 250.165, 653.552 254.562, 653.562 269.500 C 653.569 280.549, 653.901 283.330, 655.775 288.029 C 661.070 301.314, 662.819 303.212, 734.541 373.500 C 821.062 458.290, 834.508 471.505, 840 477.138 C 844.895 482.159, 846.262 482.967, 852.432 484.482 C 860.986 486.583, 873.633 486.550, 883.294 484.401 L 890.500 482.799 907.552 465.649 C 941.383 431.626, 1056.673 313.941, 1063.951 306 C 1076.066 292.783, 1080.844 279.456, 1079.715 262.029 C 1078.526 243.680, 1070.695 232.783, 1056.254 229.385 C 1048.364 227.529, 1033.931 227.742, 1025.919 229.833 C 1013.866 232.980, 1009.702 236.323, 974.500 271.122 C 956.350 289.064, 939.925 304.560, 938 305.558 C 932.505 308.408, 924.599 307.997, 918.233 304.531 C 915.336 302.954, 912.411 300.995, 911.733 300.179 C 910.437 298.619, 909.370 202.325, 909.117 64.250 L 909 0 731.491 0 L 553.981 0 554.241 103.022 L 554.500 206.044 551 207.017 C 545.287 208.604, 540.700 208.153, 535.331 205.478 C 525.680 200.668, 526.672 212.153, 526.178 99.458 L 525.742 0 481.721 0 L 437.700 0 438.433 100.434 M 330 522.072 C 318.329 524.116, 310.453 530.116, 307.244 539.408 C 303.959 548.921, 304.077 565.694, 307.502 576.006 C 310.352 584.587, 318.251 594.082, 347.912 624.580 C 369.891 647.179, 377.673 655.833, 379.720 659.948 C 384.405 669.371, 383.107 677.437, 375.247 687.742 L 372.613 691.196 186.306 690.455 L 0 689.714 0 730.857 L 0 772 11.250 772.101 C 17.438 772.156, 100.955 772.494, 196.845 772.851 L 371.190 773.500 373.682 776.500 C 377.988 781.683, 380.980 789.073, 380.990 794.554 C 381.009 804.262, 378.535 807.443, 344.955 840.896 C 312.855 872.874, 307.209 879.655, 303.703 890.434 C 301.050 898.588, 300.864 915.113, 303.332 923.291 C 307.591 937.404, 320.343 944.019, 340.784 942.719 C 355.106 941.808, 361.461 939.082, 374 928.469 C 377.025 925.908, 409.425 894.467, 446 858.599 C 482.575 822.731, 521.139 784.939, 531.699 774.617 L 550.897 755.849 552.573 748.318 C 554.513 739.594, 554.127 721.905, 551.864 715.851 C 550.886 713.235, 529.720 691.021, 477.068 637.351 C 384.551 543.047, 375.864 534.444, 367.957 529.299 C 357.877 522.742, 342.687 519.849, 330 522.072 M 858.043 522.072 C 851.131 523.302, 844.015 526.587, 837 531.787 C 833.975 534.030, 792.047 574.482, 743.827 621.682 C 644.533 718.875, 653.161 708.849, 652.334 728 C 651.984 736.111, 652.293 740.019, 653.690 745.174 L 655.500 751.848 741.377 839.324 C 821.205 920.639, 835.015 934, 843.836 938.456 C 854.881 944.034, 876.652 944.279, 887.111 938.943 C 892.406 936.242, 897.806 929.439, 899.745 923.027 C 901.997 915.577, 901.959 898.520, 899.673 890.824 C 896.626 880.564, 889.429 871.658, 858.455 839.815 C 837.870 818.652, 828.218 808.007, 826.484 804.554 C 821.970 795.565, 823.615 785.064, 830.822 776.855 L 833.907 773.341 1018.954 773.807 L 1204 774.273 1204 733.300 L 1204 692.327 1019.875 691.706 C 859.690 691.165, 835.539 690.893, 834.125 689.611 C 833.231 688.801, 830.926 685.538, 829.002 682.361 C 825.951 677.323, 825.504 675.749, 825.502 670.042 C 825.501 665.706, 826.136 662.151, 827.387 659.500 C 828.604 656.920, 839.809 645.025, 858.942 626 C 889.655 595.461, 895.427 589.038, 899.657 580.690 C 906.028 568.118, 906.633 547.042, 900.943 535.889 C 898.321 530.750, 891.506 525.233, 885.544 523.426 C 879.173 521.494, 865.168 520.805, 858.043 522.072 M 592.500 771.649 C 581.852 773.866, 586.843 769.360, 494.150 860.441 C 445.942 907.810, 404.132 949.702, 401.238 953.533 C 392.867 964.616, 391.565 968.902, 391.530 985.500 C 391.496 1001.300, 392.713 1005.559, 399.077 1011.923 C 409.149 1021.995, 432.938 1023.707, 449.539 1015.556 C 458.681 1011.067, 465.999 1004.701, 497.768 973.604 C 526.558 945.423, 529.846 943.028, 539.783 943.010 C 545.354 942.999, 551.767 945.642, 557.402 950.271 L 560.304 952.654 560.081 1078.327 L 559.859 1204 600.816 1204 L 641.773 1204 642.146 1079.556 L 642.519 955.111 645.293 952.216 C 653.118 944.049, 666.191 941.982, 675.500 947.441 C 678.581 949.248, 690.801 960.841, 707.337 977.644 C 743.768 1014.664, 750.331 1019.820, 764.469 1022.525 C 774.209 1024.389, 781.784 1024.375, 789.830 1022.478 C 805.283 1018.835, 811.961 1008.685, 811.988 988.799 C 812.009 973.140, 808.758 964.138, 798.879 952.500 C 788.991 940.852, 625.758 775.143, 623.147 774.103 C 616.414 771.420, 599.936 770.100, 592.500 771.649" stroke="none" fill="#000000" fill-rule="evenodd"/></svg>